#!OML:ASF X:\für Bonn\!DataBase\2005_08_12_Daniel\c3d\Daniel.ASF
:FULLY-SPECIFIED
:DEGREES
17
root 11.4781 16.4223 -6.69882 -733.175 -34.413 3.44387
lowerback 34.1245 -1.56859 0.287796
upperback 9.66171 -2.53368 -2.62657
thorax -6.8333 -1.33063 -1.98836
lowerneck 0.835351 4.6825 -3.78109
upperneck 12.0278 6.41807 -1.59594
head 3.68453 2.89145 0.30595
rclavicle 2.98177e-014 2.22639e-014
rhumerus -29.2894 4.23849 -85.9399
rradius 39.0599
rwrist 7.65763
rhand -17.6095 -340.4
rfingers 7.12502
rthumb 8.64723 -370.203
lclavicle 2.98177e-014 2.22639e-014
lhumerus -386.277 21.577 -282.696
lradius 35.1279
lwrist -18.1131
lhand -11.0316 355.714
lfingers 7.12502
lthumb 14.99 385.151
rfemur -11.4373 8.38119 29.1794
rtibia 43.9775
rfoot -18.0339 5.74443
rtoes 10.176
lfemur -27.0025 -4.89778 -13.1964
ltibia 63.7481
lfoot -13.0917 2.91754
ltoes 0.151658
18
root 11.504 16.425 -6.61398 -733.26 -35.6382 3.51994
lowerback 34.552 -1.48646 0.266345
upperback 9.78776 -2.4786 -2.79222
thorax -6.85817 -1.30973 -2.16333
lowerneck 0.843028 4.82107 -3.68109
upperneck 11.8838 6.62507 -1.91952
head 3.64667 2.98778 0.186782
rclavicle 3.29983e-014 -1.51076e-014
rhumerus -29.0442 5.17138 -86.18
rradius 39.8311
rwrist 7.2678
rhand -17.809 -340.387
rfingers 7.12502
rthumb 8.45471 -370.198
lclavicle 3.29983e-014 -1.51076e-014
lhumerus -386.07 21.2327 -282.787
lradius 35.3742
lwrist -17.6077
lhand -11.236 355.698
lfingers 7.12502
lthumb 14.7931 385.15
rfemur -11.2681 8.41163 29.0511
rtibia 44.0561
rfoot -17.9452 6.5675
rtoes 9.74635
lfemur -27.2008 -5.31359 -13.1093
ltibia 62.0287
lfoot -13.5594 2.22682
ltoes -1.47611
19
root 11.5281 16.4265 -6.52911 -733.3 -36.7942 3.54543
lowerback 34.973 -1.43078 0.295993
upperback 9.8998 -2.43882 -2.94892
thorax -6.89595 -1.2957 -2.35104
lowerneck 0.870013 4.94102 -3.55296
upperneck 11.7301 6.80946 -2.29438
head 3.60643 3.07282 0.0453269
rclavicle 9.93923e-016 1.98785e-014
rhumerus -28.797 6.05048 -86.3737
rradius 40.547
rwrist 6.82331
rhand -17.9388 -340.389
rfingers 7.12502
rthumb 8.32936 -370.205
lclavicle 9.93923e-016 1.98785e-014
lhumerus -385.896 20.8383 -282.888
lradius 35.6535
lwrist -17.2059
lhand -11.4426 355.75
lfingers 7.12502
lthumb 14.5941 385.216
rfemur -11.1079 8.36781 28.9599
rtibia 44.1382
rfoot -17.9171 7.32051
rtoes 9.46854
lfemur -27.4235 -5.7713 -12.991
ltibia 60.2663
lfoot -13.9283 1.48268
ltoes -3.14582
20
root 11.5499 16.4284 -6.44399 -733.35 -37.9037 3.58676
lowerback 35.3957 -1.37966 0.29687
upperback 10.0191 -2.41526 -3.10288
thorax -6.92391 -1.28971 -2.51533
lowerneck 0.900643 5.05436 -3.46791
upperneck 11.5551 6.9816 -2.6412
head 3.55673 3.15211 -0.0802528
rclavicle 3.97569e-016 -6.36111e-015
rhumerus -28.5102 6.90563 -86.5413
rradius 41.1851
rwrist 6.32875
rhand -18.0774 -340.353
rfingers 7.12502
rthumb 8.19564 -370.174
lclavicle 3.97569e-016 -6.36111e-015
lhumerus -385.717 20.4258 -282.992
lradius 35.9359
lwrist -16.9053
lhand -11.6246 355.844
lfingers 7.12502
lthumb 14.4187 385.323
rfemur -10.9442 8.24525 28.8511
rtibia 44.2209
rfoot -17.9366 8.00841
rtoes 9.37852
lfemur -27.6217 -6.33724 -12.8556
ltibia 58.4593
lfoot -14.2789 0.683822
ltoes -4.37266
21
root 11.5714 16.4285 -6.35913 -733.374 -38.9755 3.60582
lowerback 35.9075 -1.34468 0.304907
upperback 10.0424 -2.40929 -3.23465
thorax -6.95845 -1.29132 -2.66808
lowerneck 0.882489 5.17147 -3.46014
upperneck 11.4054 7.15801 -2.93144
head 3.52085 3.23154 -0.172461
rclavicle 3.37934e-015 5.1684e-015
rhumerus -28.1744 7.73966 -86.6637
rradius 41.7218
rwrist 5.76124
rhand -18.1382 -340.301
rfingers 7.12502
rthumb 8.13696 -370.124
lclavicle 3.37934e-015 5.1684e-015
lhumerus -385.552 20.0216 -283.091
lradius 36.2396
lwrist -16.6775
lhand -11.7924 355.888
lfingers 7.12502
lthumb 14.257 385.378
rfemur -10.8072 8.06365 28.7596
rtibia 44.3247
rfoot -18.0153 8.59039
rtoes 9.19256
lfemur -27.8232 -7.0062 -12.6432
ltibia 56.6432
lfoot -14.6641 -0.222967
ltoes -5.0111
22
root 11.5937 16.4244 -6.27537 -733.425 -39.9879 3.62757
lowerback 36.3915 -1.32127 0.335183
upperback 10.1432 -2.41183 -3.384
thorax -7.02733 -1.29737 -2.83319
lowerneck 0.89271 5.2723 -3.43776
upperneck 11.252 7.31053 -3.22973
head 3.48008 3.30016 -0.271077
rclavicle 2.70347e-014 2.70347e-014
rhumerus -27.8531 8.49024 -86.7558
rradius 42.2106
rwrist 5.2226
rhand -18.1082 -340.239
rfingers 7.12502
rthumb 8.16587 -370.062
lclavicle 2.70347e-014 2.70347e-014
lhumerus -385.403 19.5407 -283.204
lradius 36.5333
lwrist -16.5022
lhand -11.9343 355.96
lfingers 7.12502
lthumb 14.1204 385.46
rfemur -10.6624 7.79187 28.6559
rtibia 44.4614
rfoot -18.1305 9.12283
rtoes 9.01606
lfemur -28.0102 -7.73525 -12.4186
ltibia 54.8624
lfoot -15.0176 -1.06855
ltoes -5.37269
23
root 11.6157 16.4181 -6.19202 -733.431 -40.9907 3.60503
lowerback 36.8507 -1.31042 0.411638
upperback 10.2593 -2.41629 -3.55318
thorax -7.07158 -1.30388 -3.04382
lowerneck 0.841549 5.36465 -3.35471
upperneck 11.1229 7.45467 -3.52566
head 3.46244 3.36609 -0.376861
rclavicle -3.57812e-015 9.54166e-015
rhumerus -27.4715 9.15884 -86.8537
rradius 42.5921
rwrist 4.70354
rhand -18.07 -340.224
rfingers 7.12502
rthumb 8.20273 -370.045
lclavicle -3.57812e-015 9.54166e-015
lhumerus -385.225 18.9128 -283.344
lradius 36.8285
lwrist -16.2684
lhand -12.1882 356.02
lfingers 7.12502
lthumb 13.8757 385.537
rfemur -10.5661 7.48096 28.5829
rtibia 44.6421
rfoot -18.2932 9.58535
rtoes 8.90983
lfemur -28.2054 -8.43829 -12.1475
ltibia 53.155
lfoot -15.3768 -1.79462
ltoes -5.79709
24
root 11.6382 16.408 -6.11271 -733.452 -41.9519 3.59056
lowerback 37.3573 -1.30436 0.426943
upperback 10.3779 -2.44838 -3.70385
thorax -7.12531 -1.3244 -3.19176
lowerneck 0.769077 5.46953 -3.32616
upperneck 10.9726 7.61432 -3.79739
head 3.43883 3.43901 -0.464858
rclavicle 3.02153e-014 3.57812e-014
rhumerus -27.0448 9.80294 -86.9152
rradius 42.913
rwrist 4.22402
rhand -17.9727 -340.208
rfingers 7.12502
rthumb 8.29668 -370.025
lclavicle 3.02153e-014 3.57812e-014
lhumerus -385.078 18.296 -283.493
lradius 37.1676
lwrist -15.9173
lhand -12.3872 356.065
lfingers 7.12502
lthumb 13.6838 385.596
rfemur -10.5009 7.10506 28.5022
rtibia 44.8709
rfoot -18.4631 9.98188
rtoes 8.89007
lfemur -28.4212 -9.11897 -11.8762
ltibia 51.541
lfoot -15.6984 -2.36341
ltoes -6.3284
